<svg xmlns="http://www.w3.org/2000/svg" viewBox="0 0 100 150">
  <!-- Фон карты -->
  <rect x="0" y="0" width="100" height="150" rx="10" fill="#f0f0f0" stroke="#ddd" stroke-width="2"/>
  
  <!-- Узор на рубашке карты -->
  <rect x="10" y="10" width="80" height="130" rx="5" fill="#3390ec"/>
  
  <!-- Декоративный узор -->
  <g fill="none" stroke="#fff" stroke-width="1.5" opacity="0.7">
    <path d="M20 20 L80 20 L80 130 L20 130 L20 20" />
    <path d="M30 30 L70 30 L70 120 L30 120 L30 30" />
    <path d="M40 40 L60 40 L60 110 L40 110 L40 40" />
    
    <!-- Диагональные линии -->
    <path d="M20 20 L80 130" />
    <path d="M80 20 L20 130" />
    
    <!-- Звезда в центре -->
    <path d="M50 55 L55 75 L75 75 L60 85 L65 105 L50 95 L35 105 L40 85 L25 75 L45 75 Z" 
          stroke="#fff" fill="#2772c3" stroke-width="1" opacity="1"/>
  </g>
</svg> 