<svg xmlns="http://www.w3.org/2000/svg" viewBox="0 0 40 40">
  <rect width="40" height="40" rx="10" fill="#E2761B"/>
  <path fill="#E4761B" d="M8 8l11.5 8.5L16 12.5 8 8z"/>
  <path fill="#E4761B" d="M32 8l-11.5 8.5L24 12.5 32 8z"/>
  <path fill="#D7C1B3" d="M8 8l4.5 14.5-6-3.5L8 8zm24 0l-4.5 14.5 6-3.5L32 8z"/>
  <path fill="#233447" d="M12.5 22.5l-2 6 7.5-5.5-5.5-0.5zm15 0l2 6-7.5-5.5 5.5-0.5z"/>
  <path fill="#CD6116" d="M19.5 23l-5.5 0.5 4 3.5-1.5-4zm1 0l5.5 0.5-4 3.5 1.5-4z"/>
  <path fill="#E4751F" d="M14 18.5l2.5 4.5 5.5-3-8-1.5zm12 0l-2.5 4.5-5.5-3 8-1.5z"/>
  <path fill="#F6851B" d="M10.5 14l5.5 1.5-2.5-4L10.5 14zm13 0l-5.5 1.5 2.5-4 3 2.5z"/>
  <ellipse cx="20" cy="26.5" rx="6" ry="4" fill="#C0AD9E"/>
  <ellipse cx="20" cy="26" rx="3.5" ry="2.2" fill="#161616"/>
</svg>
